<?xml version="1.0" encoding="UTF-8" standalone="no"?>
<!DOCTYPE svg PUBLIC "-//W3C//DTD SVG 1.1//EN" "http://www.w3.org/Graphics/SVG/1.1/DTD/svg11.dtd">
<svg width="100%" height="100%" viewBox="0 0 23 22" version="1.1" xmlns="http://www.w3.org/2000/svg" xmlns:xlink="http://www.w3.org/1999/xlink" xml:space="preserve" style="fill-rule:evenodd;clip-rule:evenodd;stroke-linejoin:round;stroke-miterlimit:1.41421;">
    <g transform="matrix(1,0,0,1,-1257.34,-44.8439)">
        <path d="M1261.94,66.42C1259.42,66.42 1257.34,64.35 1257.34,61.82L1257.34,59.49C1257.34,59.1 1257.6,58.84 1257.99,58.84L1265.96,58.84C1266.35,58.84 1266.61,59.1 1266.61,59.49L1266.61,61.82C1266.61,64.35 1264.53,66.42 1261.94,66.42ZM1258.64,60.07L1258.64,61.76C1258.64,63.57 1260.13,65.13 1261.94,65.13C1263.76,65.13 1265.31,63.64 1265.31,61.76L1265.31,60.07L1258.64,60.07Z" style="fill:white;fill-rule:nonzero;"/>
        <path d="M1264.86,59.75C1264.47,59.75 1264.21,59.49 1264.21,59.1L1264.21,57.35C1264.21,56.7 1263.69,56.18 1263.04,56.18L1260.97,56.18C1260.32,56.18 1259.8,56.7 1259.8,57.35L1259.8,59.1C1259.8,59.49 1259.55,59.75 1259.16,59.75C1258.77,59.75 1258.51,59.49 1258.51,59.1L1258.51,57.35C1258.51,55.99 1259.61,54.89 1260.97,54.89L1263.11,54.89C1264.47,54.89 1265.51,55.99 1265.51,57.35L1265.51,59.1C1265.51,59.42 1265.18,59.75 1264.86,59.75Z" style="fill:white;fill-rule:nonzero;"/>
        <path d="M1263.04,62.4C1263.04,63.14 1262.68,63.51 1261.94,63.51C1261.21,63.51 1260.84,63.14 1260.84,62.4C1260.84,61.67 1261.21,61.3 1261.94,61.3C1262.68,61.3 1263.04,61.67 1263.04,62.4Z" style="fill:white;fill-rule:nonzero;"/>
        <path d="M1269.78,65.58C1269.39,65.58 1269.13,65.32 1269.13,64.93C1269.13,64.54 1269.39,64.28 1269.78,64.28C1274.77,64.28 1278.85,60.27 1278.85,55.21C1278.85,50.22 1274.84,46.14 1269.78,46.14C1266.15,46.14 1262.91,48.28 1261.42,51.65C1261.29,51.97 1260.91,52.1 1260.58,51.97C1260.26,51.84 1260.13,51.45 1260.26,51.13C1262.53,45.88 1268.62,43.42 1273.86,45.69C1279.11,47.96 1281.57,54.05 1279.31,59.29C1277.69,63.12 1273.93,65.58 1269.78,65.58Z" style="fill:white;fill-rule:nonzero;"/>
        <path d="M1269.78,57.61C1267.64,57.61 1265.96,55.93 1265.96,53.79C1265.96,51.65 1267.64,49.96 1269.78,49.96C1271.92,49.96 1273.61,51.65 1273.61,53.79C1273.61,55.86 1271.86,57.61 1269.78,57.61ZM1269.78,51.26C1268.36,51.26 1267.26,52.43 1267.26,53.79C1267.26,55.15 1268.42,56.31 1269.78,56.31C1271.14,56.31 1272.31,55.15 1272.31,53.79C1272.31,52.36 1271.14,51.26 1269.78,51.26Z" style="fill:white;fill-rule:nonzero;"/>
        <path d="M1275.74,63.31C1275.48,63.31 1275.23,63.12 1275.16,62.92C1274.06,60.14 1271.01,58.58 1268.1,59.42C1267.77,59.55 1267.39,59.36 1267.32,58.97C1267.19,58.65 1267.39,58.26 1267.77,58.19C1271.34,57.16 1275.1,58.97 1276.39,62.47C1276.52,62.79 1276.33,63.18 1276,63.31C1275.94,63.31 1275.81,63.31 1275.74,63.31Z" style="fill:white;fill-rule:nonzero;"/>
    </g>
</svg>
